<svg width="25" height="24" viewBox="0 0 25 24" fill="none" xmlns="http://www.w3.org/2000/svg">
<g clip-path="url(#clip0)">
<path d="M23.3953 4.077C23.1098 3.73944 22.7524 3.46795 22.3484 3.28182C21.9444 3.09568 21.5038 2.99946 21.0579 3H4.64858L4.60595 2.649C4.51871 1.91942 4.16282 1.24673 3.60573 0.758478C3.04864 0.270223 2.32909 0.000341793 1.5835 0L1.35819 0C1.08901 0 0.830862 0.105357 0.640526 0.292893C0.450191 0.48043 0.343262 0.734784 0.343262 1C0.343262 1.26522 0.450191 1.51957 0.640526 1.70711C0.830862 1.89464 1.08901 2 1.35819 2H1.5835C1.83209 2.00003 2.07202 2.08996 2.25779 2.25272C2.44356 2.41547 2.56224 2.63975 2.59132 2.883L3.98786 14.583C4.13284 15.7998 4.72619 16.9218 5.65529 17.736C6.58438 18.5502 7.78455 19 9.02798 19H19.6268C19.896 19 20.1542 18.8946 20.3445 18.7071C20.5348 18.5196 20.6418 18.2652 20.6418 18C20.6418 17.7348 20.5348 17.4804 20.3445 17.2929C20.1542 17.1054 19.896 17 19.6268 17H9.02798C8.3998 16.9983 7.78754 16.8051 7.27514 16.4471C6.76274 16.089 6.37528 15.5835 6.16589 15H18.2638C19.4536 15.0001 20.6056 14.5882 21.5185 13.8364C22.4314 13.0846 23.0472 12.0407 23.2582 10.887L24.055 6.533C24.1345 6.10101 24.1166 5.65707 24.0026 5.23264C23.8886 4.80821 23.6813 4.41368 23.3953 4.077ZM22.0627 6.178L21.2649 10.532C21.1382 11.225 20.7681 11.852 20.2194 12.3032C19.6707 12.7544 18.9785 13.0011 18.2638 13H5.84314L4.8881 5H21.0579C21.207 4.99912 21.3544 5.03062 21.4898 5.09226C21.6251 5.15389 21.745 5.24415 21.8409 5.35661C21.9369 5.46907 22.0064 5.60097 22.0448 5.74294C22.0831 5.8849 22.0892 6.03344 22.0627 6.178Z" fill="black"/>
<path d="M7.44776 24C8.56881 24 9.47761 23.1046 9.47761 22C9.47761 20.8954 8.56881 20 7.44776 20C6.3267 20 5.41791 20.8954 5.41791 22C5.41791 23.1046 6.3267 24 7.44776 24Z" fill="black"/>
<path d="M17.597 24C18.718 24 19.6268 23.1046 19.6268 22C19.6268 20.8954 18.718 20 17.597 20C16.4759 20 15.5671 20.8954 15.5671 22C15.5671 23.1046 16.4759 24 17.597 24Z" fill="black"/>
</g>
<defs>
<clipPath id="clip0">
<rect width="24.3582" height="24" fill="white" transform="translate(0.343262)"/>
</clipPath>
</defs>
</svg>
