<svg width="1440" height="280" viewBox="0 0 1440 280" fill="none" xmlns="http://www.w3.org/2000/svg">
<path d="M0 140V0H8.84211H17.6842V140V280H8.84211H0V140Z" fill="black"/>
<path d="M30.3158 140V0H34.1053H37.8947V140V280H34.1053H30.3158V140Z" fill="black"/>
<path d="M59.3684 140V0H63.1579H66.9474V140V280H63.1579H59.3684V140Z" fill="black"/>
<path d="M109.895 140V0H128.211H146.526V140V280H128.211H109.895V140Z" fill="black"/>
<path d="M159.158 140V0H162.947H166.737V140V280H162.947H159.158V140Z" fill="black"/>
<path d="M179.368 140V0H193.263H207.158V140V280H193.263H179.368V140Z" fill="black"/>
<path d="M219.789 140V0H233.053H246.316V140V280H233.053H219.789V140Z" fill="black"/>
<path d="M258.947 140V0H262.737H266.526V140V280H262.737H258.947V140Z" fill="black"/>
<path d="M298.105 140V0H306.947H315.789V140V280H306.947H298.105V140Z" fill="black"/>
<path d="M328.421 140V0H332.21H336V140V280H332.21H328.421V140Z" fill="black"/>
<path d="M377.684 140V0H386.526H395.368V140V280H386.526H377.684V140Z" fill="black"/>
<path d="M408 140V0H411.789H415.579V140V280H411.789H408V140Z" fill="black"/>
<path d="M438.316 140V0H446.526H454.737V140V280H446.526H438.316V140Z" fill="black"/>
<path d="M497.684 140V0H501.474H505.263V140V280H501.474H497.684V140Z" fill="black"/>
<path d="M528 140V0H531.789H535.579V140V280H531.789H528V140Z" fill="black"/>
<path d="M548.211 140V0H551.368H554.526V140V280H551.368H548.211V140Z" fill="black"/>
<path d="M597.474 140V0H606.316H615.158V140V280H606.316H597.474V140Z" fill="black"/>
<path d="M626.526 140V0H630.316H634.105V140V280H630.316H626.526V140Z" fill="black"/>
<path d="M656.842 140V0H660.632H664.421V140V280H660.632H656.842V140Z" fill="black"/>
<path d="M677.053 140V0H680.842H684.632V140V280H680.842H677.053V140Z" fill="black"/>
<path d="M706.105 140V0H725.053H744V140V280H725.053H706.105V140Z" fill="black"/>
<path d="M766.737 140V0H770.526H774.316V140V280H770.526H766.737V140Z" fill="black"/>
<path d="M786.947 140V0H795.158H803.368V140V280H795.158H786.947V140Z" fill="black"/>
<path d="M826.105 140V0H829.895H833.684V140V280H829.895H826.105V140Z" fill="black"/>
<path d="M875.368 140V0H879.158H882.947V140V280H879.158H875.368V140Z" fill="black"/>
<path d="M924.632 140V0H928.421H932.21V140V280H928.421H924.632V140Z" fill="black"/>
<path d="M954.947 140V0H963.789H972.632V140V280H963.789H954.947V140Z" fill="black"/>
<path d="M985.263 140V0H989.053H992.842V140V280H989.053H985.263V140Z" fill="black"/>
<path d="M1034.53 140V0H1043.37H1052.21V140V280H1043.37H1034.53V140Z" fill="black"/>
<path d="M1064.84 140V0H1068.63H1072.42V140V280H1068.63H1064.84V140Z" fill="black"/>
<path d="M1094.53 140V0H1098.06H1101.47V140V280H1098.06H1094.53V140Z" fill="black"/>
<path d="M1124.21 140V0H1128H1131.79V140V280H1128H1124.21V140Z" fill="black"/>
<path d="M1144.42 140V0H1153.26H1162.11V140V280H1153.26H1144.42V140Z" fill="black"/>
<path d="M1203.79 140V0H1207.58H1211.37V140V280H1207.58H1203.79V140Z" fill="black"/>
<path d="M1224 140V0H1242.32H1260.63V140V280H1242.32H1224V140Z" fill="black"/>
<path d="M1273.26 140V0H1287.16H1301.05V140V280H1287.16H1273.26V140Z" fill="black"/>
<path d="M1313.68 140V0H1322.53H1331.37V140V280H1322.53H1313.68V140Z" fill="black"/>
<path d="M1362.95 140V0H1376.84H1390.74V140V280H1376.84H1362.95V140Z" fill="black"/>
<path d="M1402.11 140V0H1405.89H1409.68V140V280H1405.89H1402.11V140Z" fill="black"/>
<path d="M1422.32 140V0H1431.16H1440V140V280H1431.16H1422.32V140Z" fill="black"/>
</svg>
