<svg width="60" height="60" viewBox="0 0 60 60" fill="none" xmlns="http://www.w3.org/2000/svg">
<path d="M15.7325 27.1975C16.2014 27.6662 16.8371 27.9295 17.5 27.9295C18.163 27.9295 18.7987 27.6662 19.2675 27.1975L27.5 18.9675L27.5175 45C27.5175 45.663 27.7809 46.2989 28.2498 46.7678C28.7186 47.2366 29.3545 47.5 30.0175 47.5C30.6806 47.5 31.3165 47.2366 31.7853 46.7678C32.2541 46.2989 32.5175 45.663 32.5175 45L32.5 18.965L40.7325 27.1975C40.9632 27.4363 41.239 27.6267 41.544 27.7578C41.849 27.8888 42.1771 27.9577 42.509 27.9606C42.841 27.9635 43.1702 27.9003 43.4774 27.7746C43.7847 27.6488 44.0638 27.4632 44.2985 27.2285C44.5333 26.9938 44.7189 26.7146 44.8446 26.4074C44.9703 26.1001 45.0336 25.7709 45.0307 25.439C45.0278 25.107 44.9588 24.779 44.8278 24.474C44.6968 24.169 44.5063 23.8931 44.2675 23.6625L35.305 14.6975C34.6086 14.0009 33.7817 13.4484 32.8717 13.0714C31.9617 12.6944 30.9863 12.5004 30.0013 12.5004C29.0163 12.5004 28.0409 12.6944 27.1309 13.0714C26.2208 13.4484 25.394 14.0009 24.6975 14.6975L15.7325 23.6625C15.2639 24.1313 15.0006 24.7671 15.0006 25.43C15.0006 26.0929 15.2639 26.7287 15.7325 27.1975Z" fill="black"/>
</svg>
