<svg width="25" height="24" viewBox="0 0 25 24" fill="none" xmlns="http://www.w3.org/2000/svg">
<g clip-path="url(#clip0)">
<path d="M18.4031 1.91699C17.2603 1.93451 16.1423 2.24885 15.1622 2.82826C14.1821 3.40768 13.3745 4.23166 12.821 5.21699C12.2675 4.23166 11.46 3.40768 10.4799 2.82826C9.49974 2.24885 8.38181 1.93451 7.23895 1.91699C5.4171 1.99498 3.70062 2.78025 2.46452 4.10122C1.22842 5.4222 0.573176 7.17152 0.641937 8.96699C0.641937 13.514 5.49937 18.48 9.57328 21.847C10.4829 22.6001 11.6329 23.013 12.821 23.013C14.0092 23.013 15.1592 22.6001 16.0688 21.847C20.1427 18.48 25.0001 13.514 25.0001 8.96699C25.0689 7.17152 24.4137 5.4222 23.1776 4.10122C21.9415 2.78025 20.225 1.99498 18.4031 1.91699ZM14.7646 20.317C14.2206 20.7684 13.5323 21.0159 12.821 21.0159C12.1098 21.0159 11.4215 20.7684 10.8775 20.317C5.66277 16.006 2.67179 11.87 2.67179 8.96699C2.60241 7.70171 3.04362 6.46072 3.8992 5.51469C4.75478 4.56866 5.95531 3.99434 7.23895 3.91699C8.5226 3.99434 9.72312 4.56866 10.5787 5.51469C11.4343 6.46072 11.8755 7.70171 11.8061 8.96699C11.8061 9.23221 11.913 9.48656 12.1034 9.6741C12.2937 9.86164 12.5519 9.96699 12.821 9.96699C13.0902 9.96699 13.3484 9.86164 13.5387 9.6741C13.729 9.48656 13.836 9.23221 13.836 8.96699C13.7666 7.70171 14.2078 6.46072 15.0634 5.51469C15.919 4.56866 17.1195 3.99434 18.4031 3.91699C19.6868 3.99434 20.8873 4.56866 21.7429 5.51469C22.5985 6.46072 23.0397 7.70171 22.9703 8.96699C22.9703 11.87 19.9793 16.006 14.7646 20.313V20.317Z" fill="black"/>
</g>
<defs>
<clipPath id="clip0">
<rect width="24.3582" height="24" fill="white" transform="translate(0.641846)"/>
</clipPath>
</defs>
</svg>
