<svg width="25" height="24" viewBox="0 0 25 24" fill="none" xmlns="http://www.w3.org/2000/svg">
<g clip-path="url(#clip0)">
<path d="M24.0613 22.293L18.0032 16.324C19.6541 14.3346 20.4658 11.7961 20.2704 9.23356C20.075 6.67103 18.8874 4.28053 16.9534 2.55652C15.0193 0.832506 12.4867 -0.0931122 9.87939 -0.0288803C7.2721 0.0353515 4.7896 1.08452 2.94539 2.90161C1.10118 4.7187 0.0363569 7.16469 -0.0288336 9.73364C-0.0940241 12.3026 0.845409 14.798 2.59515 16.7036C4.34489 18.6092 6.77107 19.7793 9.37185 19.9718C11.9726 20.1644 14.549 19.3646 16.5681 17.738L22.6262 23.707C22.8176 23.8892 23.074 23.99 23.3401 23.9877C23.6062 23.9854 23.8608 23.8802 24.0489 23.6948C24.2371 23.5094 24.3439 23.2586 24.3462 22.9964C24.3485 22.7342 24.2462 22.4816 24.0613 22.293ZM10.1497 18C8.54386 18 6.97406 17.5308 5.63883 16.6518C4.3036 15.7727 3.26291 14.5233 2.64838 13.0615C2.03384 11.5997 1.87305 9.99112 2.18634 8.43927C2.49962 6.88742 3.27292 5.46196 4.40844 4.34314C5.54396 3.22432 6.9907 2.46239 8.56571 2.15371C10.1407 1.84503 11.7733 2.00346 13.2569 2.60896C14.7405 3.21446 16.0086 4.23984 16.9008 5.55543C17.7929 6.87103 18.2691 8.41774 18.2691 10C18.2667 12.121 17.4105 14.1544 15.8883 15.6542C14.3662 17.154 12.3024 17.9976 10.1497 18Z" fill="black"/>
</g>
<defs>
<clipPath id="clip0">
<rect width="24.3582" height="24" fill="white"/>
</clipPath>
</defs>
</svg>
