<svg width="40" height="28" viewBox="0 0 40 28" fill="none" xmlns="http://www.w3.org/2000/svg">
<path d="M39.164 4.37227C38.704 2.65117 37.3488 1.29594 35.6277 0.836015C32.508 -2.98023e-07 19.9998 0 19.9998 0C19.9998 0 7.49164 -2.98023e-07 4.37187 0.836015C2.65117 1.29594 1.29562 2.65117 0.835625 4.37227C0 7.49164 0 14.0001 0 14.0001C0 14.0001 0 20.5085 0.835625 23.6276C1.29562 25.3487 2.65117 26.7042 4.37187 27.1641C7.49164 27.9998 19.9998 27.9998 19.9998 27.9998C19.9998 27.9998 32.508 27.9998 35.6277 27.1641C37.3488 26.7042 38.704 25.3487 39.164 23.6276C40 20.5085 40 14.0001 40 14.0001C40 14.0001 40 7.49164 39.164 4.37227Z" fill="#ED1F24"/>
<path d="M15.9985 19.9982L26.3906 13.9981L15.9985 7.99805V19.9982Z" fill="white"/>
</svg>
